<svg width="129" height="34" viewBox="0 0 129 34" fill="none" xmlns="http://www.w3.org/2000/svg">
<path d="M44.2824 18.4391H42.7736V24.176H39.8438V9.26367H45.6683C48.5806 9.26367 50.4227 11.2637 50.4227 13.8602C50.4227 15.9479 49.1947 17.5269 47.2473 18.0883L50.4403 24.1935H47.1946L44.2824 18.4391ZM45.1245 15.9304C46.5982 15.9304 47.4578 15.0883 47.4578 13.8602C47.4578 12.597 46.5982 11.7725 45.1245 11.7725H42.7736V15.9128H45.1245V15.9304Z" fill="#063E58"/>
<path d="M60.9296 21.2115C60.4033 23.001 58.7541 24.4923 56.2103 24.4923C53.3682 24.4923 50.8594 22.4572 50.8594 18.9659C50.8594 15.6677 53.298 13.5098 55.9471 13.5098C59.1401 13.5098 61.0524 15.5449 61.0524 18.8782C61.0524 19.2817 61.0173 19.7028 61.0173 19.7379H53.6138C53.6839 21.1063 54.8418 22.0887 56.2278 22.0887C57.5261 22.0887 58.2454 21.4396 58.5787 20.5098L60.9296 21.2115ZM58.3331 17.8256C58.2804 16.808 57.6138 15.7905 56.0173 15.7905C54.5611 15.7905 53.7717 16.8782 53.7015 17.8256H58.3331Z" fill="#063E58"/>
<path d="M64.9119 18.2291L67.4557 17.8431C68.0522 17.7554 68.2277 17.4571 68.2277 17.1063C68.2277 16.3694 67.6663 15.7554 66.4733 15.7554C65.2452 15.7554 64.5785 16.5273 64.4908 17.4396L61.9996 16.9133C62.175 15.2992 63.6663 13.5098 66.4382 13.5098C69.7189 13.5098 70.947 15.3694 70.947 17.4396V22.5273C70.947 23.0712 71.0172 23.808 71.0698 24.1765H68.5084C68.4382 23.8958 68.4031 23.3344 68.4031 22.9308C67.8768 23.7554 66.8943 24.4747 65.3505 24.4747C63.1399 24.4747 61.7891 22.9835 61.7891 21.3519C61.8242 19.5098 63.1926 18.4922 64.9119 18.2291ZM68.2452 20.001V19.5449L65.9119 19.8957C65.1926 20.001 64.6312 20.4045 64.6312 21.194C64.6312 21.808 65.0698 22.387 65.9821 22.387C67.1575 22.4045 68.2452 21.8256 68.2452 20.001Z" fill="#063E58"/>
<path d="M72.9688 24.1929V8.94727H75.7582V24.1754H72.9688V24.1929Z" fill="#063E58"/>
<path d="M85.5459 13.6316C85.4056 12.807 84.7214 11.5263 82.8266 11.5263C81.4231 11.5263 80.4933 12.4386 80.4933 13.421C80.4933 14.2456 81.0196 14.8947 82.1073 15.1052L84.1951 15.5088C86.9144 16.0351 88.3705 17.807 88.3705 19.9123C88.3705 22.2105 86.4582 24.5263 82.9845 24.5263C79.0372 24.5263 77.2828 21.9825 77.0547 19.8596L79.7565 19.1403C79.8793 20.614 80.9144 21.9298 83.0196 21.9298C84.581 21.9298 85.4407 21.1579 85.4407 20.1053C85.4407 19.2456 84.7916 18.5614 83.6337 18.3333L81.5459 17.9123C79.1775 17.421 77.6336 15.8947 77.6336 13.6491C77.6336 11 80.0196 8.98242 82.8266 8.98242C86.4407 8.98242 87.8266 11.1754 88.1775 12.8596L85.5459 13.6316Z" fill="#063E58"/>
<path d="M93.3366 13.826H95.4244V16.3172H93.3366V20.6506C93.3366 21.5629 93.7577 21.8436 94.5647 21.8436C94.898 21.8436 95.284 21.8085 95.4244 21.7559V24.0717C95.1787 24.1769 94.67 24.3173 93.8454 24.3173C91.8279 24.3173 90.5647 23.1243 90.5647 21.1243V16.3172H88.6875V13.826H89.2138C90.3015 13.826 90.8103 13.1067 90.8103 12.1769V10.7383H93.3366V13.826Z" fill="#063E58"/>
<path d="M99.49 18.2291L102.034 17.8431C102.63 17.7554 102.806 17.4571 102.806 17.1063C102.806 16.3694 102.244 15.7554 101.051 15.7554C99.8233 15.7554 99.1567 16.5273 99.069 17.4396L96.5777 16.9133C96.7532 15.2992 98.2444 13.5098 101.016 13.5098C104.297 13.5098 105.525 15.3694 105.525 17.4396V22.5273C105.525 23.0712 105.595 23.808 105.648 24.1765H103.087C103.016 23.8958 102.981 23.3344 102.981 22.9308C102.455 23.7554 101.472 24.4747 99.9286 24.4747C97.7181 24.4747 96.3672 22.9835 96.3672 21.3519C96.3847 19.5098 97.7532 18.4922 99.49 18.2291ZM102.806 20.001V19.5449L100.472 19.8957C99.7532 20.001 99.1918 20.4045 99.1918 21.194C99.1918 21.808 99.6304 22.387 100.543 22.387C101.718 22.4045 102.806 21.8256 102.806 20.001Z" fill="#063E58"/>
<path d="M110.915 13.826H113.002V16.3172H110.915V20.6506C110.915 21.5629 111.336 21.8436 112.143 21.8436C112.476 21.8436 112.862 21.8085 113.002 21.7559V24.0717C112.757 24.1769 112.248 24.3173 111.424 24.3173C109.406 24.3173 108.143 23.1243 108.143 21.1243V16.3172H106.266V13.826H106.792C107.88 13.826 108.388 13.1067 108.388 12.1769V10.7383H110.915V13.826Z" fill="#063E58"/>
<path d="M115.93 8.70215C116.895 8.70215 117.65 9.47408 117.65 10.4565C117.65 11.3864 116.895 12.1583 115.93 12.1583C114.983 12.1583 114.211 11.3864 114.211 10.4565C114.211 9.47408 114.983 8.70215 115.93 8.70215ZM114.544 24.1934V13.8425H117.334V24.1934H114.544Z" fill="#063E58"/>
<path d="M121.51 19.0176C121.51 20.8948 122.738 21.9474 124.159 21.9474C125.598 21.9474 126.3 21.0001 126.545 20.1931L129.001 21.0176C128.545 22.7369 126.914 24.5089 124.159 24.5089C121.107 24.5089 118.703 22.1931 118.703 19.0176C118.703 15.8246 121.054 13.5264 124.072 13.5264C126.896 13.5264 128.493 15.2808 128.931 17.0176L126.422 17.8597C126.177 17.0001 125.51 16.1053 124.124 16.1053C122.703 16.1053 121.51 17.1404 121.51 19.0176Z" fill="#063E58"/>
<path d="M8.7363 20.3516V26.8428C8.40296 26.5797 8.05208 26.2639 7.71875 25.9656V20.6849L8.7363 20.3516Z" fill="#063E58"/>
<path d="M11.541 19.3848V28.4901C11.2076 28.3497 10.8568 28.1918 10.5234 27.9988V19.7356L11.541 19.3848Z" fill="#063E58"/>
<path d="M22.7055 15.2631V17.8771L19.916 16.9122V29.1052C19.5651 29.1929 19.2142 29.2631 18.8984 29.3333V13.9473L22.7055 15.2631Z" fill="#063E58"/>
<path d="M25.5102 20.6849V25.9657C25.1768 26.2639 24.8259 26.5797 24.4926 26.8428V20.8077L22.7207 20.2112V27.9832C22.4049 28.1411 22.054 28.3165 21.7031 28.4744V19.3691L25.5102 20.6849Z" fill="#063E58"/>
<path d="M27.2646 23.9127V19.439L24.4751 18.4916V14.0004L17.1242 11.4741V29.5092C16.7909 29.5268 16.44 29.5268 16.1067 29.5092V8.24599L19.9312 10.3863V11.9653L21.6856 12.5793V9.33371L14.3172 5.22843V12.0881L8.73823 14.0004V17.9302L10.5102 17.3162V15.2636L14.3172 13.9478V29.3338C14.0014 29.2636 13.6505 29.1934 13.3172 29.1057V16.9127L5.96629 19.439V23.9127C4.47506 21.7548 3.70312 19.246 3.70312 16.6144C3.70312 9.49161 9.49262 3.68457 16.633 3.68457C23.7383 3.68457 29.5278 9.47406 29.5278 16.6144C29.5278 19.246 28.7558 21.7548 27.2646 23.9127Z" fill="#063E58"/>
<path d="M16.6141 0C7.43862 0 0 7.43862 0 16.5965C0 25.772 7.43862 33.1931 16.6141 33.1931C25.7895 33.1931 33.2106 25.772 33.2106 16.5965C33.2106 7.43862 25.7895 0 16.6141 0ZM16.6141 31.2983C8.5088 31.2983 1.91229 24.7018 1.91229 16.5965C1.91229 8.5088 8.49125 1.91229 16.6141 1.91229C24.7018 1.91229 31.2983 8.49125 31.2983 16.5965C31.2983 24.7018 24.7194 31.2983 16.6141 31.2983Z" fill="#063E58"/>
</svg>
